<?xml version="1.0" encoding="UTF-8" standalone="no"?>
<!-- Created with Inkscape (http://www.inkscape.org/) -->

<svg
   xmlns:dc="http://purl.org/dc/elements/1.1/"
   xmlns:cc="http://creativecommons.org/ns#"
   xmlns:rdf="http://www.w3.org/1999/02/22-rdf-syntax-ns#"
   xmlns:svg="http://www.w3.org/2000/svg"
   xmlns="http://www.w3.org/2000/svg"
   xmlns:xlink="http://www.w3.org/1999/xlink"
   xmlns:sodipodi="http://sodipodi.sourceforge.net/DTD/sodipodi-0.dtd"
   xmlns:inkscape="http://www.inkscape.org/namespaces/inkscape"
   style="enable-background:new"
   sodipodi:docname="logo.svg"
   inkscape:version="0.92.5 (2060ec1f9f, 2020-04-08)"
   id="svg8"
   version="1.1"
   viewBox="0 0 51.777748 12.226043"
   height="12.226043mm"
   width="51.777748mm">
  <defs
     id="defs2">
    <linearGradient
       inkscape:collect="always"
       id="linearGradient1085">
      <stop
         style="stop-color:#df8d2d;stop-opacity:1"
         offset="0"
         id="stop1081" />
      <stop
         style="stop-color:#6315fc;stop-opacity:1"
         offset="1"
         id="stop1083" />
    </linearGradient>
    <linearGradient
       inkscape:collect="always"
       id="linearGradient932-7">
      <stop
         style="stop-color:#000000;stop-opacity:1;"
         offset="0"
         id="stop928" />
      <stop
         style="stop-color:#000000;stop-opacity:0;"
         offset="1"
         id="stop930" />
    </linearGradient>
    <linearGradient
       inkscape:collect="always"
       xlink:href="#linearGradient932-7"
       id="linearGradient990"
       x1="49.77676"
       y1="60.786484"
       x2="64.605103"
       y2="60.786484"
       gradientUnits="userSpaceOnUse" />
    <linearGradient
       inkscape:collect="always"
       xlink:href="#linearGradient1085"
       id="linearGradient1522"
       x1="49.865402"
       y1="55.5518"
       x2="65.691437"
       y2="63.09343"
       gradientUnits="userSpaceOnUse"
       gradientTransform="translate(-1.3701637,0.37797619)" />
  </defs>
  <sodipodi:namedview
     id="base"
     pagecolor="#ffffff"
     bordercolor="#666666"
     borderopacity="1.0"
     inkscape:pageopacity="0.0"
     inkscape:pageshadow="2"
     inkscape:zoom="7.9195959"
     inkscape:cx="57.980483"
     inkscape:cy="37.423674"
     inkscape:document-units="mm"
     inkscape:current-layer="layer2"
     showgrid="false"
     inkscape:window-width="2560"
     inkscape:window-height="1027"
     inkscape:window-x="0"
     inkscape:window-y="27"
     inkscape:window-maximized="1" />
  <metadata
     id="metadata5">
    <rdf:RDF>
      <cc:Work
         rdf:about="">
        <dc:format>image/svg+xml</dc:format>
        <dc:type
           rdf:resource="http://purl.org/dc/dcmitype/StillImage" />
        <dc:title />
      </cc:Work>
    </rdf:RDF>
  </metadata>
  <g
     inkscape:groupmode="layer"
     id="layer3"
     inkscape:label="text"
     transform="translate(-48.495237,-55.232265)">
    <flowRoot
       xml:space="preserve"
       id="flowRoot877"
       style="font-style:normal;font-weight:normal;font-size:40px;line-height:1.25;font-family:sans-serif;letter-spacing:0px;word-spacing:0px;fill:#000000;fill-opacity:1;stroke:none"
       transform="scale(0.26458333)"><flowRegion
         id="flowRegion879"><rect
           id="rect881"
           width="142.5"
           height="58.392857"
           x="242.5"
           y="205.73396" /></flowRegion><flowPara
         id="flowPara883">Orinoco</flowPara></flowRoot>    <g
       aria-label="Orinoco"
       style="font-style:normal;font-weight:normal;font-size:10.58333302px;line-height:1.25;font-family:sans-serif;letter-spacing:0px;word-spacing:0px;display:inline;fill:#000000;fill-opacity:1;stroke:none;stroke-width:0.26458332;enable-background:new"
       id="text933">
      <path
         d="m 67.533978,57.863676 q 0.15875,-0.179917 0.47625,-0.359833 0.3175,-0.179917 0.677334,-0.28575 0.370416,-0.116417 0.73025,-0.116417 0.359833,0 0.613833,0.179917 l 0.0635,-0.0635 q 0.60325,0.201083 1.016,0.550333 0.41275,0.338667 0.613833,0.973667 0.05292,0.169333 0.04233,0.338666 -0.01058,0.169334 0.04233,0.338667 0.07408,0.306917 0.169333,0.719667 0.105834,0.41275 0.05292,0.92075 -0.07408,0.656166 -0.423333,1.291166 -0.34925,0.635 -0.878417,1.11125 -0.529167,0.465667 -1.195917,0.719667 -0.66675,0.243417 -1.36525,0.116417 -0.381,-0.0635 -0.687916,-0.254 -0.306917,-0.1905 -0.53975,-0.455084 -0.232834,-0.275166 -0.402167,-0.60325 -0.15875,-0.338666 -0.254,-0.6985 -0.116417,-0.41275 -0.169333,-0.878416 -0.04233,-0.465667 0,-0.931334 0.04233,-0.47625 0.1905,-0.910166 0.148166,-0.4445 0.41275,-0.79375 0.179916,-0.243417 0.391583,-0.455084 0.211667,-0.22225 0.423333,-0.455083 z m 2.31775,0.592667 q -0.05292,-0.05292 -0.127,-0.08467 -0.07408,-0.03175 -0.148166,-0.0635 l -0.0635,0.0635 q -0.1905,-0.179917 -0.518584,-0.116417 -0.328083,0.0635 -0.66675,0.22225 l -0.08467,0.137584 q -0.211667,0.09525 -0.328084,0.232833 -0.116416,0.137583 -0.179916,0.306917 -0.05292,0.169333 -0.07408,0.370416 -0.02117,0.201084 -0.03175,0.423334 -0.02117,0.328083 -0.01058,0.719666 0.02117,0.391584 0.09525,0.783167 0.08467,0.391583 0.243417,0.740833 0.15875,0.338667 0.423333,0.582084 0.08467,0.08467 0.179917,0.137583 0.09525,0.05292 0.1905,0.105833 0.243416,0 0.518583,-0.04233 0.275167,-0.05292 0.529167,-0.137583 0.254,-0.09525 0.4445,-0.211667 0.201083,-0.116417 0.28575,-0.264583 0.22225,-0.402167 0.254,-0.941917 0.04233,-0.53975 -0.0635,-1.090083 -0.09525,-0.550334 -0.328084,-1.04775 -0.22225,-0.508 -0.53975,-0.8255 z m -0.941916,5.154083 q 0.47625,0.0635 0.878416,-0.05292 0.41275,-0.116416 0.73025,-0.370416 0.3175,-0.254 0.518584,-0.624417 0.211666,-0.381 0.275166,-0.836083 -0.09525,0.243416 -0.232833,0.465666 -0.08467,0.116417 -0.211667,0.243417 -0.116416,0.127 -0.243416,0.254 -0.127,0.116417 -0.243417,0.22225 -0.105833,0.09525 -0.179917,0.169333 -0.127,0.116417 -0.486833,0.275167 -0.359833,0.148167 -0.804333,0.254 z m -1.672167,-4.98475 q -0.148167,0.264583 -0.254,0.613833 0.3175,-0.508 0.772583,-0.867833 0.148167,-0.116417 0.423334,-0.275167 0.275166,-0.169333 0.613833,-0.306916 -0.22225,0 -0.465667,0.08467 -0.243416,0.07408 -0.465666,0.201084 -0.211667,0.116416 -0.381,0.264583 -0.15875,0.137583 -0.243417,0.28575 z"
         style="font-style:normal;font-variant:normal;font-weight:normal;font-stretch:normal;font-family:'Belligerent Madness';-inkscape-font-specification:'Belligerent Madness';stroke-width:0.26458332"
         id="path935" />
      <path
         d="m 73.704055,60.604759 q 0.07408,-0.09525 0.137583,-0.179916 0.07408,-0.08467 0.15875,-0.15875 0.03175,-0.02117 0,0.05292 -0.03175,0.0635 -0.03175,0.105834 -0.03175,0.15875 -0.03175,0.306916 -0.01058,0.09525 -0.02117,0.1905 0,0.08467 0,0.169334 0.211667,-0.232834 0.465667,-0.423334 0.254,-0.201083 0.529167,-0.3175 0.275166,-0.116416 0.560916,-0.127 0.296334,-0.02117 0.5715,0.116417 0.0635,0.04233 0.105834,0.08467 0.137583,0.03175 0.254,0.105833 0.127,0.0635 0.211666,0.1905 0.116417,0.179917 0.148167,0.391583 0.04233,0.201084 0.07408,0.41275 -0.0635,0 -0.127,0.01058 -0.05292,0 -0.116416,-0.01058 l -0.243417,0.550334 0.0635,-0.04233 q -0.0635,0.05292 -0.148167,0.09525 -0.07408,0.03175 -0.127,-0.02117 -0.02117,-0.05292 -0.03175,-0.116417 0,-0.0635 -0.01058,-0.116417 -0.03175,0.01058 -0.09525,0.01058 -0.0635,-0.02117 -0.127,-0.07408 -0.03175,0 -0.05292,-0.03175 0,0 -0.02117,-0.04233 -0.05292,-0.05292 -0.105834,-0.09525 -0.05292,-0.05292 -0.137583,-0.09525 -0.169333,-0.0635 -0.391583,-0.07408 -0.22225,-0.01058 -0.455084,0.04233 -0.22225,0.04233 -0.433916,0.137583 -0.201084,0.09525 -0.34925,0.232834 0,0.306916 0.0635,0.709083 0.07408,0.264583 0.15875,0.518583 0.08467,0.254 0.169333,0.497417 l -0.105833,0.105833 q 0.05292,0.232834 0.105833,0.433917 0.0635,0.1905 0.116417,0.338667 -0.02117,0.02117 -0.03175,0.03175 0,0.01058 -0.02117,0.02117 0.02117,0.04233 0.04233,0.05292 v 0.01058 l 0.0635,0.0635 q 0.02117,-0.02117 0.04233,-0.03175 -0.01058,0.02117 -0.01058,0.04233 0,0.03175 -0.01058,0.05292 -0.01058,0.0635 -0.105833,0.1905 -0.08467,0.127 -0.201084,0.232834 -0.105833,0.116416 -0.22225,0.179916 -0.105833,0.0635 -0.169333,0 -0.105833,-0.105833 -0.179917,-0.254 -0.07408,-0.148166 -0.137583,-0.328083 -0.116417,0.148167 -0.254,0.264583 -0.137583,0.127 -0.243417,0.09525 -0.01058,0.02117 -0.02117,0.02117 -0.01058,0.01058 -0.02117,0.03175 0,-0.02117 -0.01058,-0.04233 0,-0.02117 0,-0.04233 -0.105834,-0.179916 -0.127,-0.41275 -0.02117,-0.232833 -0.04233,-0.433916 -0.03175,-0.243417 -0.05292,-0.47625 -0.02117,-0.243417 -0.03175,-0.486834 -0.09525,-0.47625 -0.169334,-0.9525 -0.07408,-0.47625 -0.09525,-0.973666 l 0.275167,-0.232834 v -0.15875 q 0,0 0.02117,-0.01058 0.04233,-0.09525 0.137583,-0.211667 0.09525,-0.127 0.201083,-0.22225 0.105834,-0.09525 0.201084,-0.137583 0.09525,-0.04233 0.127,0.01058 l 0.01058,-0.01058 v 0.201083 q 0.0635,-0.09525 0.148167,-0.169333 0.09525,-0.08467 0.1905,-0.15875 z"
         style="font-style:normal;font-variant:normal;font-weight:normal;font-stretch:normal;font-family:'Belligerent Madness';-inkscape-font-specification:'Belligerent Madness';stroke-width:0.26458332"
         id="path937" />
      <path
         d="m 77.492878,62.541509 q -0.05292,-0.423333 -0.02117,-0.8255 l -0.03175,0.03175 q 0,-0.179916 0,-0.328083 0.01058,-0.15875 0.04233,-0.28575 0.03175,-0.137583 0.105833,-0.254 0.07408,-0.127 0.22225,-0.254 0.05292,-0.04233 0.116417,-0.09525 0.07408,-0.05292 0.15875,-0.08467 l 0.243416,-0.232833 q 0.02117,0.0635 0.03175,0.137583 0.02117,0.0635 0.03175,0.127 0.105834,-0.08467 0.1905,-0.105833 0.08467,-0.03175 0.105834,0.0635 -0.01058,0.08467 -0.02117,0.169333 0,0.07408 0,0.15875 -0.01058,0.423334 -0.02117,0.846667 0,0.423333 0.01058,0.846667 0.03175,0.41275 0.08467,0.8255 0.0635,0.41275 0.15875,0.846666 0.01058,0 0.03175,-0.02117 0,0.02117 -0.01058,0.05292 0,0.02117 0,0.04233 -0.02117,0.0635 -0.105833,0.179916 -0.07408,0.116417 -0.179917,0.22225 -0.105833,0.116417 -0.211667,0.179917 -0.105833,0.07408 -0.179916,0.04233 -0.08467,0.07408 -0.169334,0.105834 -0.08467,0.03175 -0.137583,-0.02117 -0.01058,-0.03175 -0.02117,-0.0635 0,-0.02117 -0.01058,-0.05292 -0.15875,0.105834 -0.232833,0.03175 -0.01058,-0.05292 -0.01058,-0.116416 0,-0.05292 -0.01058,-0.116417 -0.03175,-0.07408 -0.0635,-0.211667 -0.02117,-0.137583 -0.03175,-0.28575 -0.01058,-0.15875 -0.02117,-0.296333 -0.01058,-0.137583 -0.01058,-0.201083 -0.01058,-0.148167 -0.01058,-0.28575 0,-0.137584 0,-0.28575 -0.01058,-0.116417 -0.02117,-0.243417 0,-0.127 0,-0.243417 z m 0.28575,-3.767666 q 0.01058,-0.02117 0.01058,-0.04233 0,-0.03175 0.01058,-0.05292 0.08467,-0.1905 0.254,-0.370417 0.169333,-0.179917 0.381,-0.232833 h 0.02117 q 0.05292,0.01058 0.0635,0.0635 v 0.137583 q 0.08467,-0.0635 0.137584,-0.07408 0.0635,-0.01058 0.08467,0.07408 0.02117,0.169333 0.02117,0.3175 0,0.148167 0.05292,0.15875 l -0.179917,0.211667 q -0.02117,0.148166 -0.0635,0.296333 -0.04233,0.137583 -0.127,0.254 -0.02117,0.03175 -0.05292,0.08467 -0.03175,0.04233 -0.08467,0.09525 -0.01058,0.01058 -0.01058,0.02117 v 0.01058 l -0.01058,0.01058 q 0,0.01058 -0.01058,0.01058 0,0 0,0.01058 -0.03175,0.04233 -0.116417,0.15875 -0.08467,0.105833 -0.1905,0.211666 -0.09525,0.105834 -0.201083,0.15875 -0.105834,0.05292 -0.169334,-0.01058 -0.01058,-0.359833 -0.01058,-0.740833 0,-0.381 0.137583,-0.719667 z"
         style="font-style:normal;font-variant:normal;font-weight:normal;font-stretch:normal;font-family:'Belligerent Madness';-inkscape-font-specification:'Belligerent Madness';stroke-width:0.26458332"
         id="path939" />
      <path
         d="m 82.202452,60.954009 q -0.3175,0 -0.656167,0.179917 -0.338667,0.169333 -0.624417,0.338667 0,0.592666 0.05292,1.17475 0.0635,0.5715 0.254,1.132416 l 0.02117,-0.02117 q 0,0.05292 0,0.08467 0.01058,0.02117 0.02117,0.05292 0.02117,0.02117 0.02117,0.05292 0.01058,0.01058 0.01058,0.02117 0,0 0.01058,0.01058 0.02117,0.07408 -0.0635,0.211666 -0.07408,0.127 -0.1905,0.243417 -0.105834,0.105833 -0.232834,0.169333 -0.116416,0.07408 -0.179916,0.04233 l -0.01058,0.01058 q 0,-0.01058 -0.01058,-0.01058 0,0 0,-0.01058 -0.105833,-0.22225 -0.1905,-0.497416 -0.05292,0.07408 -0.127,0.15875 -0.07408,0.08467 -0.148167,0.148166 -0.07408,0.05292 -0.148166,0.08467 -0.0635,0.02117 -0.116417,0 l -0.02117,0.02117 q -0.01058,-0.03175 -0.01058,-0.105834 -0.07408,-0.47625 -0.127,-1.005416 -0.05292,-0.53975 -0.0635,-1.090084 -0.01058,-0.550333 0.02117,-1.090083 0.03175,-0.53975 0.105833,-1.016 v -0.08467 q 0,0 0.02117,-0.01058 0.03175,-0.0635 0.137583,-0.1905 0.105833,-0.137583 0.211667,-0.232833 0.116416,-0.105834 0.211666,-0.148167 0.09525,-0.04233 0.116417,0.0635 0,0.179917 -0.01058,0.359833 0,0.169334 -0.01058,0.34925 0.105834,-0.116416 0.232834,-0.201083 0.127,-0.09525 0.264583,-0.07408 0.04233,0.1905 0.01058,0.41275 -0.02117,0.211666 -0.04233,0.423333 0.211667,-0.1905 0.4445,-0.359833 0.243417,-0.179917 0.508,-0.306917 0.264583,-0.137583 0.53975,-0.211667 0.275167,-0.07408 0.550333,-0.0635 0.08467,0 0.179917,0.01058 0.105833,0 0.1905,0.05292 0.211667,0.15875 0.28575,0.423334 0.08467,0.254 0.116417,0.497416 0.05292,0.34925 0.08467,0.709084 0.03175,0.34925 0.04233,0.6985 0,0.15875 -0.02117,0.34925 -0.02117,0.179916 0,0.328083 0.02117,0.201083 0.0635,0.41275 0.05292,0.211667 0.02117,0.41275 -0.105833,0.08467 -0.201083,0.15875 -0.09525,0.0635 -0.1905,0.148167 -0.0635,0.08467 -0.148166,0.169333 -0.07408,0.08467 -0.148167,0.137583 -0.07408,0.05292 -0.148167,0.07408 -0.0635,0.01058 -0.105833,-0.03175 -0.01058,-0.02117 -0.01058,-0.07408 l 0.01058,-0.01058 q 0,-0.05292 0,-0.09525 0.01058,-0.04233 0.02117,-0.09525 -0.08467,0.08467 -0.179917,0.116417 -0.08467,0.03175 -0.137583,-0.03175 -0.01058,-0.01058 -0.01058,-0.04233 l 0.02117,-0.02117 q -0.04233,0.01058 -0.04233,-0.03175 0.01058,-0.04233 0.03175,-0.09525 0.03175,-0.0635 0.0635,-0.127 0.03175,-0.0635 0.04233,-0.105834 0.03175,-0.148166 0.07408,-0.306916 0.05292,-0.15875 0.08467,-0.306917 0.07408,-0.402167 0,-0.836083 -0.0635,-0.433917 -0.211667,-0.814917 -0.116416,-0.275167 -0.254,-0.433917 -0.137583,-0.169333 -0.306916,-0.254 z"
         style="font-style:normal;font-variant:normal;font-weight:normal;font-stretch:normal;font-family:'Belligerent Madness';-inkscape-font-specification:'Belligerent Madness';stroke-width:0.26458332"
         id="path941" />
      <path
         d="m 84.636611,63.832676 q -0.15875,-0.3175 -0.179917,-0.66675 -0.01058,-0.359833 0.08467,-0.709083 0.105833,-0.359834 0.306917,-0.6985 0.201083,-0.338667 0.465666,-0.613834 0.02117,-0.02117 0.04233,-0.04233 0.02117,-0.03175 0.04233,-0.05292 0.127,-0.137583 0.296333,-0.28575 0.169333,-0.15875 0.359833,-0.28575 0.1905,-0.127 0.391584,-0.201083 0.211666,-0.08467 0.41275,-0.0635 0.127,0.02117 0.232833,0.04233 0.116417,0.02117 0.232833,0.04233 0.402167,-0.05292 0.740834,0.148166 0.148166,0.09525 0.296333,0.1905 0.15875,0.08467 0.28575,0.201084 0.22225,0.232833 0.381,0.497416 0.15875,0.264584 0.232833,0.550334 0.02117,0.04233 0.04233,0.07408 0.02117,0.03175 0.04233,0.07408 0.09525,0.1905 0.137583,0.4445 0.04233,0.243417 -0.03175,0.455084 -0.127,0.381 -0.201083,0.582083 -0.07408,0.201083 -0.1905,0.34925 -0.105833,0.137583 -0.275167,0.28575 -0.169333,0.148167 -0.486833,0.433917 -0.116417,0.116416 -0.264583,0.1905 -0.148167,0.08467 -0.306917,0.116416 -0.201083,0.04233 -0.41275,0.03175 -0.211667,-0.01058 -0.41275,-0.02117 -0.243417,-0.01058 -0.433917,-0.02117 -0.1905,0 -0.359833,-0.02117 -0.169333,-0.02117 -0.34925,-0.08467 -0.169333,-0.0635 -0.381,-0.1905 -0.01058,0 -0.02117,-0.01058 -0.518584,-0.264583 -0.719667,-0.740833 z m 3.7465,-1.397 q -0.1905,-0.254 -0.47625,-0.497417 -0.28575,-0.243416 -0.624417,-0.402166 -0.328083,-0.169334 -0.677333,-0.22225 -0.34925,-0.0635 -0.66675,0.05292 -0.179917,0.148167 -0.306917,0.370417 -0.296333,0.486833 -0.28575,0.910167 0.01058,0.423333 0.254,0.719666 0.254,0.296334 0.6985,0.423334 0.455083,0.127 1.037167,0.03175 0.105833,-0.02117 0.254,-0.05292 0.148166,-0.03175 0.306916,-0.08467 0.15875,-0.0635 0.296334,-0.137583 0.148166,-0.08467 0.243416,-0.179917 0.179917,-0.201083 0.137584,-0.455083 -0.03175,-0.264583 -0.1905,-0.47625 z m 0.254,1.418167 q -0.116417,0.116416 -0.254,0.211666 -0.127,0.09525 -0.243417,0.179917 0.116417,-0.02117 0.179917,-0.0635 0.07408,-0.0635 0.15875,-0.127 0.08467,-0.0635 0.137583,-0.148167 0.01058,-0.01058 0.01058,-0.02117 0,-0.01058 0.01058,-0.03175 z"
         style="font-style:normal;font-variant:normal;font-weight:normal;font-stretch:normal;font-family:'Belligerent Madness';-inkscape-font-specification:'Belligerent Madness';stroke-width:0.26458332"
         id="path943" />
      <path
         d="m 92.150765,63.494009 q 0.243416,0.05292 0.486833,0.04233 0.254,-0.01058 0.497417,-0.04233 0.53975,-0.127 1.04775,-0.423333 0.03175,-0.02117 0.0635,-0.04233 0.04233,-0.03175 0.08467,-0.05292 0.04233,-0.04233 0.05292,-0.05292 0.01058,-0.02117 0.02117,-0.03175 0.01058,-0.01058 0.03175,-0.03175 0.02117,-0.02117 0.0635,-0.0635 0.03175,-0.03175 0.127,-0.105833 0.105834,-0.08467 0.201084,-0.137583 l 0.04233,-0.04233 0.02117,0.02117 q 0.09525,-0.01058 0.0635,0.137583 -0.127,0.34925 -0.391584,0.624417 -0.254,0.275167 -0.603249,0.47625 -0.232834,0.201083 -0.497417,0.402167 -0.264583,0.1905 -0.529167,0.328083 -0.254,0.137583 -0.497416,0.201083 -0.232834,0.07408 -0.423334,0.04233 -0.306916,-0.0635 -0.5715,-0.201084 -0.264583,-0.137583 -0.508,-0.3175 -0.529166,-0.402166 -0.8255,-0.772583 -0.28575,-0.381 -0.338666,-0.762 -0.04233,-0.381 0.148166,-0.783167 0.201084,-0.41275 0.656167,-0.867833 0.3175,-0.433917 0.772583,-0.709083 0.455084,-0.28575 1.121834,-0.497417 0.137583,-0.04233 0.3175,-0.0635 0.179916,-0.02117 0.370416,-0.01058 0.15875,-0.04233 0.359834,-0.05292 0.201083,-0.01058 0.391583,0.02117 0.05292,-0.08467 0.15875,-0.201084 0.105833,-0.127 0.201083,-0.22225 0.105833,-0.09525 0.1905,-0.127 0.09525,-0.03175 0.116417,0.07408 0.02117,0.201083 0.01058,0.402166 -0.01058,0.201084 -0.05292,0.402167 0.02117,0.05292 0.04233,0.09525 0.02117,0.04233 0.03175,0.09525 -0.05292,0.201083 -0.201084,0.34925 -0.02117,0.169333 -0.05292,0.328083 -0.03175,0.15875 -0.105834,0.3175 l -0.0635,0.09525 v 0.02117 q 0.05292,0.08467 0.116416,0.127 0.0635,0.04233 0.127,0.105833 -0.179917,0.169334 -0.34925,0.328084 -0.15875,0.15875 -0.338666,0.328083 -0.0635,-0.0635 -0.148167,-0.105833 -0.07408,-0.05292 -0.09525,-0.137584 -0.03175,-0.08467 0.05292,-0.41275 -0.01058,-0.105833 0,-0.243416 0.02117,-0.137584 0.04233,-0.28575 -0.02117,-0.0635 -0.04233,-0.127 -0.01058,-0.0635 -0.05292,-0.116417 -0.02117,-0.02117 -0.04233,-0.03175 -0.01058,-0.01058 -0.03175,-0.03175 -0.127,-0.05292 -0.243417,-0.105833 -0.116417,-0.0635 -0.232833,-0.08467 -0.201084,-0.04233 -0.465667,-0.04233 -0.28575,0.148166 -0.550333,0.338666 -0.264584,0.179917 -0.486834,0.391584 -0.391583,0.34925 -0.550333,0.5715 -0.148167,0.22225 -0.0635,0.465666 0.08467,0.105834 0.1905,0.22225 0.105833,0.116417 0.243417,0.275167 0.05292,0.0635 0.09525,0.137583 0.05292,0.07408 0.116416,0.15875 0.116417,0.116417 0.306917,0.232834 0.08467,0.0635 0.179917,0.105833 0.09525,0.04233 0.1905,0.07408 z"
         style="font-style:normal;font-variant:normal;font-weight:normal;font-stretch:normal;font-family:'Belligerent Madness';-inkscape-font-specification:'Belligerent Madness';stroke-width:0.26458332"
         id="path945" />
      <path
         d="m 95.41042,63.832676 q -0.15875,-0.3175 -0.179916,-0.66675 -0.01058,-0.359833 0.08467,-0.709083 0.105834,-0.359834 0.306917,-0.6985 0.201083,-0.338667 0.465667,-0.613834 0.02117,-0.02117 0.04233,-0.04233 0.02117,-0.03175 0.04233,-0.05292 0.127,-0.137583 0.296334,-0.28575 0.169333,-0.15875 0.359833,-0.28575 0.1905,-0.127 0.391583,-0.201083 0.211667,-0.08467 0.41275,-0.0635 0.127,0.02117 0.232834,0.04233 0.116416,0.02117 0.232833,0.04233 0.402167,-0.05292 0.740833,0.148166 0.148167,0.09525 0.296334,0.1905 0.15875,0.08467 0.28575,0.201084 0.222249,0.232833 0.380999,0.497416 0.15875,0.264584 0.232837,0.550334 0.0212,0.04233 0.0423,0.07408 0.0212,0.03175 0.0423,0.07408 0.0952,0.1905 0.13759,0.4445 0.0423,0.243417 -0.0317,0.455084 -0.127,0.381 -0.20109,0.582083 -0.07408,0.201083 -0.190497,0.34925 -0.105833,0.137583 -0.275166,0.28575 -0.169333,0.148167 -0.486833,0.433917 -0.116417,0.116416 -0.264584,0.1905 -0.148166,0.08467 -0.306916,0.116416 -0.201084,0.04233 -0.41275,0.03175 -0.211667,-0.01058 -0.41275,-0.02117 -0.243417,-0.01058 -0.433917,-0.02117 -0.1905,0 -0.359833,-0.02117 -0.169334,-0.02117 -0.34925,-0.08467 -0.169334,-0.0635 -0.381,-0.1905 -0.01058,0 -0.02117,-0.01058 -0.518583,-0.264583 -0.719667,-0.740833 z m 3.7465,-1.397 q -0.1905,-0.254 -0.47625,-0.497417 -0.28575,-0.243416 -0.624416,-0.402166 -0.328084,-0.169334 -0.677334,-0.22225 -0.34925,-0.0635 -0.66675,0.05292 -0.179916,0.148167 -0.306916,0.370417 -0.296334,0.486833 -0.28575,0.910167 0.01058,0.423333 0.254,0.719666 0.254,0.296334 0.6985,0.423334 0.455083,0.127 1.037166,0.03175 0.105834,-0.02117 0.254,-0.05292 0.148167,-0.03175 0.306917,-0.08467 0.15875,-0.0635 0.296333,-0.137583 0.148167,-0.08467 0.243417,-0.179917 0.179917,-0.201083 0.137583,-0.455083 -0.03175,-0.264583 -0.1905,-0.47625 z m 0.254,1.418167 q -0.116416,0.116416 -0.254,0.211666 -0.127,0.09525 -0.243416,0.179917 0.116416,-0.02117 0.179916,-0.0635 0.07408,-0.0635 0.15875,-0.127 0.08467,-0.0635 0.137584,-0.148167 0.01058,-0.01058 0.01058,-0.02117 0,-0.01058 0.01058,-0.03175 z"
         style="font-style:normal;font-variant:normal;font-weight:normal;font-stretch:normal;font-family:'Belligerent Madness';-inkscape-font-specification:'Belligerent Madness';stroke-width:0.26458332"
         id="path947" />
    </g>
  </g>
  <g
     inkscape:groupmode="layer"
     id="layer2"
     inkscape:label="cart"
     style="display:inline;"
     transform="translate(-48.495237,-55.232265)">
    <path
       transform="translate(1.25e-6)"
       style="opacity:1;fill:url(#linearGradient1522);fill-opacity:1;stroke:none;stroke-width:0.08303571;stroke-linecap:butt;stroke-linejoin:round;stroke-miterlimit:4;stroke-dasharray:none;stroke-dashoffset:0;stroke-opacity:1;enable-background:new"
       d="m 49.55977,55.232662 c -0.73745,0.0032 -0.947846,0.112628 -1.033013,0.538467 l -0.03152,0.158647 0.196887,-0.02636 c 0.126876,-0.01702 0.228468,-0.06566 0.285772,-0.136424 0.08144,-0.100579 0.126095,-0.109794 0.526581,-0.110588 l 0.437701,-0.001 0.181901,0.56689 c 0.309702,0.965806 2.023649,6.633345 2.023649,6.691583 0,0.03028 -0.180647,0.488828 -0.401526,1.019058 -0.22088,0.530231 -0.401526,0.982245 -0.401526,1.004073 0,0.02183 0.0798,0.07145 0.177249,0.110588 0.09745,0.03913 0.179933,0.06794 0.183452,0.06408 0.0087,-0.0096 0.491291,-1.149347 0.677994,-1.601454 l 0.151414,-0.366384 h 4.646228 c 4.384276,0 4.647682,-0.0047 4.670515,-0.08268 0.01331,-0.04547 0.335084,-1.485773 0.715201,-3.200839 0.380127,-1.715069 0.70131,-3.155362 0.714168,-3.200839 0.02217,-0.07844 -0.299646,-0.08268 -6.285404,-0.08268 h -6.308662 l -0.174665,-0.555555 c -0.106087,-0.337437 -0.218082,-0.601033 -0.286287,-0.672828 -0.107555,-0.1133 -0.135321,-0.118136 -0.666109,-0.115755 z m 10.761098,10.122379 c -0.292653,0 -0.506367,0.08494 -0.723984,0.286803 -0.626597,0.581226 -0.307224,1.653794 0.535884,1.799891 0.65554,0.113597 1.228347,-0.370287 1.228347,-1.037664 0,-0.600797 -0.444527,-1.04903 -1.040247,-1.04903 z m -8.43721,0.01344 c -0.04812,-6.9e-4 -0.102867,10e-4 -0.166915,0.0047 -0.413406,0.02336 -0.661757,0.185102 -0.858346,0.559138 -0.114691,0.21821 -0.133617,0.301342 -0.117821,0.527101 0.02661,0.380698 0.219358,0.67896 0.55087,0.852143 0.662033,0.345853 1.400728,-0.02633 1.53634,-0.774113 0.07149,-0.394178 -0.196222,-0.879506 -0.598413,-1.084688 -0.114707,-0.05853 -0.201364,-0.08216 -0.345715,-0.08423 z m 1.11466,0.232545 v 0.212389 0.212908 h 3.02359 3.024103 v -0.212908 -0.212389 h -3.024103 z"
       id="path1504"
       inkscape:connector-curvature="0" />
  </g>
</svg>
